<svg xmlns="http://www.w3.org/2000/svg" viewBox="0 0 64 64" fill="none" role="img" aria-label="Iris">
  <defs>
    <linearGradient id="iris-gold" x1="12" y1="8" x2="52" y2="56">
      <stop offset="0%" stop-color="#fcd34d"/>
      <stop offset="45%" stop-color="#fbbf24"/>
      <stop offset="100%" stop-color="#d97706"/>
    </linearGradient>
  </defs>
  <path d="M 14 15 Q 32 7 50 15" stroke="url(#iris-gold)" stroke-width="1.25" stroke-linecap="round" fill="none" opacity="0.85"/>
  <path d="M 14 49 Q 32 57 50 49" stroke="url(#iris-gold)" stroke-width="1.25" stroke-linecap="round" fill="none" opacity="0.85"/>
  <line x1="14" y1="15" x2="14" y2="12" stroke="#fbbf24" stroke-width="1" stroke-linecap="round"/>
  <line x1="32" y1="9" x2="32" y2="6" stroke="#fbbf24" stroke-width="1" stroke-linecap="round"/>
  <line x1="50" y1="15" x2="50" y2="12" stroke="#fbbf24" stroke-width="1" stroke-linecap="round"/>
  <line x1="14" y1="49" x2="14" y2="52" stroke="#fbbf24" stroke-width="1" stroke-linecap="round"/>
  <line x1="32" y1="55" x2="32" y2="58" stroke="#fbbf24" stroke-width="1" stroke-linecap="round"/>
  <line x1="50" y1="49" x2="50" y2="52" stroke="#fbbf24" stroke-width="1" stroke-linecap="round"/>
  <path d="M 10 32 C 10 19 20 11 32 10 C 44 11 54 19 54 32 C 54 45 44 53 32 54 C 20 53 10 45 10 32 Z" stroke="#b45309" stroke-width="1.25" fill="#1a1816"/>
  <path d="M32 14 Q43 20 43 32 Q37 28 32 26 Z" fill="url(#iris-gold)" transform="rotate(0 32 32)"/>
  <path d="M32 14 Q43 20 43 32 Q37 28 32 26 Z" fill="url(#iris-gold)" transform="rotate(60 32 32)"/>
  <path d="M32 14 Q43 20 43 32 Q37 28 32 26 Z" fill="url(#iris-gold)" transform="rotate(120 32 32)"/>
  <path d="M32 14 Q43 20 43 32 Q37 28 32 26 Z" fill="url(#iris-gold)" transform="rotate(180 32 32)"/>
  <path d="M32 14 Q43 20 43 32 Q37 28 32 26 Z" fill="url(#iris-gold)" transform="rotate(240 32 32)"/>
  <path d="M32 14 Q43 20 43 32 Q37 28 32 26 Z" fill="url(#iris-gold)" transform="rotate(300 32 32)"/>
  <circle cx="32" cy="32" r="7" fill="#0a0908"/>
  <circle cx="32" cy="32" r="5.5" fill="#1a1816"/>
  <circle cx="29.5" cy="29.5" r="1.75" fill="#fef3c7" opacity="0.55"/>
</svg>
